<?xml version="1.0" encoding="iso-8859-1"?>
<!-- Generator: Adobe Illustrator 16.0.0, SVG Export Plug-In . SVG Version: 6.00 Build 0)  -->
<!DOCTYPE svg PUBLIC "-//W3C//DTD SVG 1.1//EN" "http://www.w3.org/Graphics/SVG/1.1/DTD/svg11.dtd">
<svg version="1.1" id="Capa_1" xmlns="http://www.w3.org/2000/svg" xmlns:xlink="http://www.w3.org/1999/xlink" x="0px" y="0px"
	 width="488.719px" height="488.719px" viewBox="0 0 488.719 488.719" style="enable-background:new 0 0 488.719 488.719;"
	 xml:space="preserve">
<g>
	<path d="M93.288,265.982c0,0-60.961-16.734-51.398-84.867c2.687-36.452,37.351-38.546,37.954-48.109s-70.227,5.68-67.836,66.488
		c2.391,60.809,53.196,82.324,58.57,85.317c5.384,2.983-7.172,18.924-11.953,26.297s-18.13,45.623-13.349,73.315
		c-0.029,5.833-52.192,11.36-42.438,31.671c10.958,24.7,25.102,75.305,55.778,72.513c30.676-2.792,19.326-32.475-4.38-31.479
		c-23.706,0.994-23.504-34.464-11.953-39.044c11.552-4.58,34.865-14.545,39.646-31.078s23.313-29.481,45.422-22.108
		c22.109,7.373,35.659,11.36,24.5,45.021c-11.16,33.669-13.942,32.273,11.551,45.622c25.503,13.35,83.471,29.481,76.299,3.988
		c-7.171-25.504-21.716-19.326-29.089-17.93c-7.373,1.396-36.854,3.987-27.492-27.895c9.362-31.871,8.769-80.487,6.771-92.44
		c-1.989-11.953,10.155-0.593,30.284-7.765c20.12-7.172,54.19-20.722,54.784-22.108c0.602-1.396-4.982,70.925,13.75,70.925
		c18.733,0,18.332-33.469,20.723-80.487c2.391-28.286,18.723,2.391,35.065-1.989c16.333-4.38,58.57-25.102,84.073,4.781
		c25.504,29.883,43.729,44.227,54.937,28.688c11.208-15.539-5.929-34.263-22.261-37.849c-16.333-3.586-17.528-25.102-50.605-33.871
		c-33.076-8.769-58.169,1.195-58.57-47.411c-0.401-48.606-25.896-51.876-30.677-63.792s-12.746-39.005,34.664-45.776
		c47.411-6.77,45.422-11.953,45.422-15.137c0-3.185-37.848,3.586-42.237-11.953c-1.597-10.758,47.411-17.528,43.031-52.996
		c-5.202-12.708-37.849,5.183-42.63,7.172c-16.236,3.882-4.876-13.75-25.196-10.758c-20.32,2.993-43.328,26.89-61.258,19.125
		c-17.93-7.765-29.883-13.148-25.704,2.391c0,0-4.179,1.195-9.858,3.882c-5.681,2.688,14.937,20.923,17.327,24.203
		c2.391,3.28,11.455,50.002-8.463,75.907c-19.919,25.896-52.996,84.867-97.614,107.98
		C114.613,248.751,101.856,260.102,93.288,265.982z"/>
</g>
<g>
</g>
<g>
</g>
<g>
</g>
<g>
</g>
<g>
</g>
<g>
</g>
<g>
</g>
<g>
</g>
<g>
</g>
<g>
</g>
<g>
</g>
<g>
</g>
<g>
</g>
<g>
</g>
<g>
</g>
</svg>
